<svg version="1.1"
   baseProfile="full"
   width="2100" height="1350"
   xmlns="http://www.w3.org/2000/svg"
   xmlns:xlink="http://www.w3.org/1999/xlink">
   <defs>
     <rect id = "element"
           x="0" y="0" width="70.71067811" height="70.71067811" rx="10"
           stroke="black" stroke-width="2"
           transform = "rotate(-45 0 0)"/>
   </defs>
   <use xlink:href="#element" x="200" y="1050" fill="#fff5f5" />
   <text x="250" y="1045" class="strong" text-anchor="middle" font-size="135%">0%</text>
   <text x="250" y="1060" class="strong" text-anchor="middle" font-size="85%">7 / 2363</text>
   <use xlink:href="#element" x="300" y="1050" fill="#ffc4c4" />
   <text x="350" y="1045" class="strong" text-anchor="middle" font-size="135%">1%</text>
   <text x="350" y="1060" class="strong" text-anchor="middle" font-size="85%">25 / 2260</text>
   <use xlink:href="#element" x="400" y="1050" fill="#ffc4c4" />
   <text x="450" y="1045" class="strong" text-anchor="middle" font-size="135%">1%</text>
   <text x="450" y="1060" class="strong" text-anchor="middle" font-size="85%">23 / 2072</text>
   <use xlink:href="#element" x="500" y="1050" fill="#ffe0e0" />
   <text x="550" y="1045" class="strong" text-anchor="middle" font-size="135%">1%</text>
   <text x="550" y="1060" class="strong" text-anchor="middle" font-size="85%">13 / 2044</text>
   <use xlink:href="#element" x="600" y="1050" fill="#ffdfdf" />
   <text x="650" y="1045" class="strong" text-anchor="middle" font-size="135%">1%</text>
   <text x="650" y="1060" class="strong" text-anchor="middle" font-size="85%">14 / 2125</text>
   <use xlink:href="#element" x="700" y="1050" fill="#ffd6d6" />
   <text x="750" y="1045" class="strong" text-anchor="middle" font-size="135%">1%</text>
   <text x="750" y="1060" class="strong" text-anchor="middle" font-size="85%">16 / 1994</text>
   <use xlink:href="#element" x="800" y="1050" fill="#ff7a7a" />
   <text x="850" y="1045" class="strong" text-anchor="middle" font-size="135%">2%</text>
   <text x="850" y="1060" class="strong" text-anchor="middle" font-size="85%">52 / 2228</text>
   <use xlink:href="#element" x="900" y="1050" fill="#ff8484" />
   <text x="950" y="1045" class="strong" text-anchor="middle" font-size="135%">2%</text>
   <text x="950" y="1060" class="strong" text-anchor="middle" font-size="85%">44 / 2027</text>
   <use xlink:href="#element" x="1000" y="1050" fill="#fffefe" />
   <text x="1050" y="1045" class="strong" text-anchor="middle" font-size="135%">0%</text>
   <text x="1050" y="1060" class="strong" text-anchor="middle" font-size="85%">4 / 2670</text>
   <use xlink:href="#element" x="1100" y="1050" fill="#ffebeb" />
   <text x="1150" y="1045" class="strong" text-anchor="middle" font-size="135%">0%</text>
   <text x="1150" y="1060" class="strong" text-anchor="middle" font-size="85%">9 / 1975</text>
   <use xlink:href="#element" x="1200" y="1050" fill="#ffecec" />
   <text x="1250" y="1045" class="strong" text-anchor="middle" font-size="135%">0%</text>
   <text x="1250" y="1060" class="strong" text-anchor="middle" font-size="85%">8 / 1813</text>
   <use xlink:href="#element" x="1300" y="1050" fill="#ffc2c2" />
   <text x="1350" y="1045" class="strong" text-anchor="middle" font-size="135%">1%</text>
   <text x="1350" y="1060" class="strong" text-anchor="middle" font-size="85%">32 / 2813</text>
   <use xlink:href="#element" x="1400" y="1050" fill="#ff6666" />
   <text x="1450" y="1045" class="strong" text-anchor="middle" font-size="135%">3%</text>
   <text x="1450" y="1060" class="strong" text-anchor="middle" font-size="85%">58 / 2179</text>
   <use xlink:href="#element" x="1500" y="1050" fill="#ffdbdb" />
   <text x="1550" y="1045" class="strong" text-anchor="middle" font-size="135%">1%</text>
   <text x="1550" y="1060" class="strong" text-anchor="middle" font-size="85%">20 / 2766</text>
   <use xlink:href="#element" x="1600" y="1050" fill="#ffffff" />
   <text x="1650" y="1045" class="strong" text-anchor="middle" font-size="135%">0%</text>
   <text x="1650" y="1060" class="strong" text-anchor="middle" font-size="85%">3 / 2303</text>
   <use xlink:href="#element" x="1700" y="1050" fill="#ffc0c0" />
   <text x="1750" y="1045" class="strong" text-anchor="middle" font-size="135%">1%</text>
   <text x="1750" y="1060" class="strong" text-anchor="middle" font-size="85%">24 / 2049</text>
   <use xlink:href="#element" x="1800" y="1050" fill="#fff0f0" />
   <text x="1850" y="1045" class="strong" text-anchor="middle" font-size="135%">0%</text>
   <text x="1850" y="1060" class="strong" text-anchor="middle" font-size="85%">7 / 1890</text>
   <use xlink:href="#element" x="250" y="1000" fill="#6eff6e" />
   <text x="300" y="995" class="strong" text-anchor="middle" font-size="135%">77%</text>
   <text x="300" y="1010" class="strong" text-anchor="middle" font-size="85%">2015 / 2608</text>
   <use xlink:href="#element" x="350" y="1000" fill="#ffffff" />
   <text x="400" y="995" class="strong" text-anchor="middle" font-size="135%">0%</text>
   <text x="400" y="1010" class="strong" text-anchor="middle" font-size="85%">0 / 4332</text>
   <use xlink:href="#element" x="450" y="1000" fill="#66ff66" />
   <text x="500" y="995" class="strong" text-anchor="middle" font-size="135%">82%</text>
   <text x="500" y="1010" class="strong" text-anchor="middle" font-size="85%">1849 / 2267</text>
   <use xlink:href="#element" x="550" y="1000" fill="#96ff96" />
   <text x="600" y="995" class="strong" text-anchor="middle" font-size="135%">56%</text>
   <text x="600" y="1010" class="strong" text-anchor="middle" font-size="85%">1493 / 2676</text>
   <use xlink:href="#element" x="650" y="1000" fill="#ceffce" />
   <text x="700" y="995" class="strong" text-anchor="middle" font-size="135%">26%</text>
   <text x="700" y="1010" class="strong" text-anchor="middle" font-size="85%">851 / 3268</text>
   <use xlink:href="#element" x="750" y="1000" fill="#ffffff" />
   <text x="800" y="995" class="strong" text-anchor="middle" font-size="135%">0%</text>
   <text x="800" y="1010" class="strong" text-anchor="middle" font-size="85%">0 / 4222</text>
   <use xlink:href="#element" x="850" y="1000" fill="#94ff94" />
   <text x="900" y="995" class="strong" text-anchor="middle" font-size="135%">57%</text>
   <text x="900" y="1010" class="strong" text-anchor="middle" font-size="85%">1541 / 2714</text>
   <use xlink:href="#element" x="950" y="1000" fill="#ffffff" />
   <text x="1000" y="995" class="strong" text-anchor="middle" font-size="135%">0%</text>
   <text x="1000" y="1010" class="strong" text-anchor="middle" font-size="85%">3 / 4694</text>
   <use xlink:href="#element" x="1050" y="1000" fill="#ffffff" />
   <text x="1100" y="995" class="strong" text-anchor="middle" font-size="135%">0%</text>
   <text x="1100" y="1010" class="strong" text-anchor="middle" font-size="85%">0 / 4645</text>
   <use xlink:href="#element" x="1150" y="1000" fill="#81ff81" />
   <text x="1200" y="995" class="strong" text-anchor="middle" font-size="135%">67%</text>
   <text x="1200" y="1010" class="strong" text-anchor="middle" font-size="85%">1524 / 2264</text>
   <use xlink:href="#element" x="1250" y="1000" fill="#ffffff" />
   <text x="1300" y="995" class="strong" text-anchor="middle" font-size="135%">0%</text>
   <text x="1300" y="1010" class="strong" text-anchor="middle" font-size="85%">0 / 4626</text>
   <use xlink:href="#element" x="1350" y="1000" fill="#ffffff" />
   <text x="1400" y="995" class="strong" text-anchor="middle" font-size="135%">0%</text>
   <text x="1400" y="1010" class="strong" text-anchor="middle" font-size="85%">6 / 4986</text>
   <use xlink:href="#element" x="1450" y="1000" fill="#ffffff" />
   <text x="1500" y="995" class="strong" text-anchor="middle" font-size="135%">0%</text>
   <text x="1500" y="1010" class="strong" text-anchor="middle" font-size="85%">3 / 4942</text>
   <use xlink:href="#element" x="1550" y="1000" fill="#ffffff" />
   <text x="1600" y="995" class="strong" text-anchor="middle" font-size="135%">0%</text>
   <text x="1600" y="1010" class="strong" text-anchor="middle" font-size="85%">0 / 5069</text>
   <use xlink:href="#element" x="1650" y="1000" fill="#ffffff" />
   <text x="1700" y="995" class="strong" text-anchor="middle" font-size="135%">0%</text>
   <text x="1700" y="1010" class="strong" text-anchor="middle" font-size="85%">0 / 4352</text>
   <use xlink:href="#element" x="1750" y="1000" fill="#d1ffd1" />
   <text x="1800" y="995" class="strong" text-anchor="middle" font-size="135%">25%</text>
   <text x="1800" y="1010" class="strong" text-anchor="middle" font-size="85%">780 / 3159</text>
   <use xlink:href="#element" x="300" y="950" fill="#ffffff" />
   <text x="350" y="945" class="strong" text-anchor="middle" font-size="135%">0%</text>
   <text x="350" y="960" class="strong" text-anchor="middle" font-size="85%">0 / 4435</text>
   <use xlink:href="#element" x="400" y="950" fill="#ffffff" />
   <text x="450" y="945" class="strong" text-anchor="middle" font-size="135%">0%</text>
   <text x="450" y="960" class="strong" text-anchor="middle" font-size="85%">0 / 4304</text>
   <use xlink:href="#element" x="500" y="950" fill="#99ff99" />
   <text x="550" y="945" class="strong" text-anchor="middle" font-size="135%">55%</text>
   <text x="550" y="960" class="strong" text-anchor="middle" font-size="85%">1481 / 2716</text>
   <use xlink:href="#element" x="600" y="950" fill="#cdffcd" />
   <text x="650" y="945" class="strong" text-anchor="middle" font-size="135%">27%</text>
   <text x="650" y="960" class="strong" text-anchor="middle" font-size="85%">852 / 3186</text>
   <use xlink:href="#element" x="700" y="950" fill="#ffffff" />
   <text x="750" y="945" class="strong" text-anchor="middle" font-size="135%">0%</text>
   <text x="750" y="960" class="strong" text-anchor="middle" font-size="85%">0 / 4353</text>
   <use xlink:href="#element" x="800" y="950" fill="#ffffff" />
   <text x="850" y="945" class="strong" text-anchor="middle" font-size="135%">0%</text>
   <text x="850" y="960" class="strong" text-anchor="middle" font-size="85%">0 / 4021</text>
   <use xlink:href="#element" x="900" y="950" fill="#ffffff" />
   <text x="950" y="945" class="strong" text-anchor="middle" font-size="135%">0%</text>
   <text x="950" y="960" class="strong" text-anchor="middle" font-size="85%">3 / 4895</text>
   <use xlink:href="#element" x="1000" y="950" fill="#ffffff" />
   <text x="1050" y="945" class="strong" text-anchor="middle" font-size="135%">0%</text>
   <text x="1050" y="960" class="strong" text-anchor="middle" font-size="85%">0 / 4002</text>
   <use xlink:href="#element" x="1100" y="950" fill="#ffffff" />
   <text x="1150" y="945" class="strong" text-anchor="middle" font-size="135%">0%</text>
   <text x="1150" y="960" class="strong" text-anchor="middle" font-size="85%">0 / 4483</text>
   <use xlink:href="#element" x="1200" y="950" fill="#ffffff" />
   <text x="1250" y="945" class="strong" text-anchor="middle" font-size="135%">0%</text>
   <text x="1250" y="960" class="strong" text-anchor="middle" font-size="85%">0 / 4788</text>
   <use xlink:href="#element" x="1300" y="950" fill="#ffffff" />
   <text x="1350" y="945" class="strong" text-anchor="middle" font-size="135%">0%</text>
   <text x="1350" y="960" class="strong" text-anchor="middle" font-size="85%">0 / 3992</text>
   <use xlink:href="#element" x="1400" y="950" fill="#75ff75" />
   <text x="1450" y="945" class="strong" text-anchor="middle" font-size="135%">73%</text>
   <text x="1450" y="960" class="strong" text-anchor="middle" font-size="85%">2360 / 3219</text>
   <use xlink:href="#element" x="1500" y="950" fill="#ffffff" />
   <text x="1550" y="945" class="strong" text-anchor="middle" font-size="135%">0%</text>
   <text x="1550" y="960" class="strong" text-anchor="middle" font-size="85%">0 / 4482</text>
   <use xlink:href="#element" x="1600" y="950" fill="#ffffff" />
   <text x="1650" y="945" class="strong" text-anchor="middle" font-size="135%">0%</text>
   <text x="1650" y="960" class="strong" text-anchor="middle" font-size="85%">0 / 4815</text>
   <use xlink:href="#element" x="1700" y="950" fill="#ffffff" />
   <text x="1750" y="945" class="strong" text-anchor="middle" font-size="135%">0%</text>
   <text x="1750" y="960" class="strong" text-anchor="middle" font-size="85%">0 / 4193</text>
   <use xlink:href="#element" x="350" y="900" fill="#ffffff" />
   <text x="400" y="895" class="strong" text-anchor="middle" font-size="135%">0%</text>
   <text x="400" y="910" class="strong" text-anchor="middle" font-size="85%">0 / 4407</text>
   <use xlink:href="#element" x="450" y="900" fill="#ffffff" />
   <text x="500" y="895" class="strong" text-anchor="middle" font-size="135%">0%</text>
   <text x="500" y="910" class="strong" text-anchor="middle" font-size="85%">0 / 4385</text>
   <use xlink:href="#element" x="550" y="900" fill="#ccffcc" />
   <text x="600" y="895" class="strong" text-anchor="middle" font-size="135%">27%</text>
   <text x="600" y="910" class="strong" text-anchor="middle" font-size="85%">864 / 3202</text>
   <use xlink:href="#element" x="650" y="900" fill="#ffffff" />
   <text x="700" y="895" class="strong" text-anchor="middle" font-size="135%">0%</text>
   <text x="700" y="910" class="strong" text-anchor="middle" font-size="85%">0 / 4272</text>
   <use xlink:href="#element" x="750" y="900" fill="#ffffff" />
   <text x="800" y="895" class="strong" text-anchor="middle" font-size="135%">0%</text>
   <text x="800" y="910" class="strong" text-anchor="middle" font-size="85%">0 / 4152</text>
   <use xlink:href="#element" x="850" y="900" fill="#ffffff" />
   <text x="900" y="895" class="strong" text-anchor="middle" font-size="135%">0%</text>
   <text x="900" y="910" class="strong" text-anchor="middle" font-size="85%">0 / 4664</text>
   <use xlink:href="#element" x="950" y="900" fill="#ffffff" />
   <text x="1000" y="895" class="strong" text-anchor="middle" font-size="135%">0%</text>
   <text x="1000" y="910" class="strong" text-anchor="middle" font-size="85%">0 / 4203</text>
   <use xlink:href="#element" x="1050" y="900" fill="#ffffff" />
   <text x="1100" y="895" class="strong" text-anchor="middle" font-size="135%">0%</text>
   <text x="1100" y="910" class="strong" text-anchor="middle" font-size="85%">0 / 3840</text>
   <use xlink:href="#element" x="1150" y="900" fill="#7bff7b" />
   <text x="1200" y="895" class="strong" text-anchor="middle" font-size="135%">70%</text>
   <text x="1200" y="910" class="strong" text-anchor="middle" font-size="85%">2264 / 3219</text>
   <use xlink:href="#element" x="1250" y="900" fill="#ffffff" />
   <text x="1300" y="895" class="strong" text-anchor="middle" font-size="135%">0%</text>
   <text x="1300" y="910" class="strong" text-anchor="middle" font-size="85%">0 / 4154</text>
   <use xlink:href="#element" x="1350" y="900" fill="#ffffff" />
   <text x="1400" y="895" class="strong" text-anchor="middle" font-size="135%">0%</text>
   <text x="1400" y="910" class="strong" text-anchor="middle" font-size="85%">0 / 4579</text>
   <use xlink:href="#element" x="1450" y="900" fill="#ffffff" />
   <text x="1500" y="895" class="strong" text-anchor="middle" font-size="135%">0%</text>
   <text x="1500" y="910" class="strong" text-anchor="middle" font-size="85%">0 / 5116</text>
   <use xlink:href="#element" x="1550" y="900" fill="#ffffff" />
   <text x="1600" y="895" class="strong" text-anchor="middle" font-size="135%">0%</text>
   <text x="1600" y="910" class="strong" text-anchor="middle" font-size="85%">0 / 4228</text>
   <use xlink:href="#element" x="1650" y="900" fill="#ffffff" />
   <text x="1700" y="895" class="strong" text-anchor="middle" font-size="135%">0%</text>
   <text x="1700" y="910" class="strong" text-anchor="middle" font-size="85%">0 / 4656</text>
   <use xlink:href="#element" x="400" y="850" fill="#ffffff" />
   <text x="450" y="845" class="strong" text-anchor="middle" font-size="135%">0%</text>
   <text x="450" y="860" class="strong" text-anchor="middle" font-size="85%">0 / 4488</text>
   <use xlink:href="#element" x="500" y="850" fill="#ffffff" />
   <text x="550" y="845" class="strong" text-anchor="middle" font-size="135%">0%</text>
   <text x="550" y="860" class="strong" text-anchor="middle" font-size="85%">0 / 4254</text>
   <use xlink:href="#element" x="600" y="850" fill="#ffffff" />
   <text x="650" y="845" class="strong" text-anchor="middle" font-size="135%">0%</text>
   <text x="650" y="860" class="strong" text-anchor="middle" font-size="85%">0 / 4300</text>
   <use xlink:href="#element" x="700" y="850" fill="#ffffff" />
   <text x="750" y="845" class="strong" text-anchor="middle" font-size="135%">0%</text>
   <text x="750" y="860" class="strong" text-anchor="middle" font-size="85%">0 / 4071</text>
   <use xlink:href="#element" x="800" y="850" fill="#ffffff" />
   <text x="850" y="845" class="strong" text-anchor="middle" font-size="135%">0%</text>
   <text x="850" y="860" class="strong" text-anchor="middle" font-size="85%">0 / 4795</text>
   <use xlink:href="#element" x="900" y="850" fill="#a0ffa0" />
   <text x="950" y="845" class="strong" text-anchor="middle" font-size="135%">51%</text>
   <text x="950" y="860" class="strong" text-anchor="middle" font-size="85%">1333 / 2636</text>
   <use xlink:href="#element" x="1000" y="850" fill="#ffffff" />
   <text x="1050" y="845" class="strong" text-anchor="middle" font-size="135%">0%</text>
   <text x="1050" y="860" class="strong" text-anchor="middle" font-size="85%">0 / 4041</text>
   <use xlink:href="#element" x="1100" y="850" fill="#ffffff" />
   <text x="1150" y="845" class="strong" text-anchor="middle" font-size="135%">0%</text>
   <text x="1150" y="860" class="strong" text-anchor="middle" font-size="85%">5 / 4835</text>
   <use xlink:href="#element" x="1200" y="850" fill="#ffffff" />
   <text x="1250" y="845" class="strong" text-anchor="middle" font-size="135%">0%</text>
   <text x="1250" y="860" class="strong" text-anchor="middle" font-size="85%">3 / 4846</text>
   <use xlink:href="#element" x="1300" y="850" fill="#ffffff" />
   <text x="1350" y="845" class="strong" text-anchor="middle" font-size="135%">0%</text>
   <text x="1350" y="860" class="strong" text-anchor="middle" font-size="85%">0 / 4741</text>
   <use xlink:href="#element" x="1400" y="850" fill="#ffffff" />
   <text x="1450" y="845" class="strong" text-anchor="middle" font-size="135%">0%</text>
   <text x="1450" y="860" class="strong" text-anchor="middle" font-size="85%">0 / 4116</text>
   <use xlink:href="#element" x="1500" y="850" fill="#ffffff" />
   <text x="1550" y="845" class="strong" text-anchor="middle" font-size="135%">0%</text>
   <text x="1550" y="860" class="strong" text-anchor="middle" font-size="85%">0 / 4862</text>
   <use xlink:href="#element" x="1600" y="850" fill="#ffffff" />
   <text x="1650" y="845" class="strong" text-anchor="middle" font-size="135%">0%</text>
   <text x="1650" y="860" class="strong" text-anchor="middle" font-size="85%">0 / 4069</text>
   <use xlink:href="#element" x="450" y="800" fill="#ffffff" />
   <text x="500" y="795" class="strong" text-anchor="middle" font-size="135%">0%</text>
   <text x="500" y="810" class="strong" text-anchor="middle" font-size="85%">0 / 4357</text>
   <use xlink:href="#element" x="550" y="800" fill="#ffffff" />
   <text x="600" y="795" class="strong" text-anchor="middle" font-size="135%">0%</text>
   <text x="600" y="810" class="strong" text-anchor="middle" font-size="85%">0 / 4488</text>
   <use xlink:href="#element" x="650" y="800" fill="#ffffff" />
   <text x="700" y="795" class="strong" text-anchor="middle" font-size="135%">0%</text>
   <text x="700" y="810" class="strong" text-anchor="middle" font-size="85%">0 / 4099</text>
   <use xlink:href="#element" x="750" y="800" fill="#ffffff" />
   <text x="800" y="795" class="strong" text-anchor="middle" font-size="135%">0%</text>
   <text x="800" y="810" class="strong" text-anchor="middle" font-size="85%">0 / 4714</text>
   <use xlink:href="#element" x="850" y="800" fill="#d1ffd1" />
   <text x="900" y="795" class="strong" text-anchor="middle" font-size="135%">24%</text>
   <text x="900" y="810" class="strong" text-anchor="middle" font-size="85%">805 / 3295</text>
   <use xlink:href="#element" x="950" y="800" fill="#9dff9d" />
   <text x="1000" y="795" class="strong" text-anchor="middle" font-size="135%">52%</text>
   <text x="1000" y="810" class="strong" text-anchor="middle" font-size="85%">1303 / 2504</text>
   <use xlink:href="#element" x="1050" y="800" fill="#ffffff" />
   <text x="1100" y="795" class="strong" text-anchor="middle" font-size="135%">0%</text>
   <text x="1100" y="810" class="strong" text-anchor="middle" font-size="85%">4 / 5037</text>
   <use xlink:href="#element" x="1150" y="800" fill="#a7ffa7" />
   <text x="1200" y="795" class="strong" text-anchor="middle" font-size="135%">47%</text>
   <text x="1200" y="810" class="strong" text-anchor="middle" font-size="85%">1340 / 2866</text>
   <use xlink:href="#element" x="1250" y="800" fill="#7dff7d" />
   <text x="1300" y="795" class="strong" text-anchor="middle" font-size="135%">69%</text>
   <text x="1300" y="810" class="strong" text-anchor="middle" font-size="85%">2228 / 3208</text>
   <use xlink:href="#element" x="1350" y="800" fill="#ffffff" />
   <text x="1400" y="795" class="strong" text-anchor="middle" font-size="135%">0%</text>
   <text x="1400" y="810" class="strong" text-anchor="middle" font-size="85%">0 / 4278</text>
   <use xlink:href="#element" x="1450" y="800" fill="#82ff82" />
   <text x="1500" y="795" class="strong" text-anchor="middle" font-size="135%">66%</text>
   <text x="1500" y="810" class="strong" text-anchor="middle" font-size="85%">1542 / 2320</text>
   <use xlink:href="#element" x="1550" y="800" fill="#ffffff" />
   <text x="1600" y="795" class="strong" text-anchor="middle" font-size="135%">0%</text>
   <text x="1600" y="810" class="strong" text-anchor="middle" font-size="85%">0 / 4703</text>
   <use xlink:href="#element" x="500" y="750" fill="#ffffff" />
   <text x="550" y="745" class="strong" text-anchor="middle" font-size="135%">0%</text>
   <text x="550" y="760" class="strong" text-anchor="middle" font-size="85%">0 / 4591</text>
   <use xlink:href="#element" x="600" y="750" fill="#ffffff" />
   <text x="650" y="745" class="strong" text-anchor="middle" font-size="135%">0%</text>
   <text x="650" y="760" class="strong" text-anchor="middle" font-size="85%">0 / 4287</text>
   <use xlink:href="#element" x="700" y="750" fill="#ffffff" />
   <text x="750" y="745" class="strong" text-anchor="middle" font-size="135%">0%</text>
   <text x="750" y="760" class="strong" text-anchor="middle" font-size="85%">0 / 4742</text>
   <use xlink:href="#element" x="800" y="750" fill="#ceffce" />
   <text x="850" y="745" class="strong" text-anchor="middle" font-size="135%">26%</text>
   <text x="850" y="760" class="strong" text-anchor="middle" font-size="85%">839 / 3180</text>
   <use xlink:href="#element" x="900" y="750" fill="#d3ffd3" />
   <text x="950" y="745" class="strong" text-anchor="middle" font-size="135%">23%</text>
   <text x="950" y="760" class="strong" text-anchor="middle" font-size="85%">749 / 3189</text>
   <use xlink:href="#element" x="1000" y="750" fill="#ffffff" />
   <text x="1050" y="745" class="strong" text-anchor="middle" font-size="135%">0%</text>
   <text x="1050" y="760" class="strong" text-anchor="middle" font-size="85%">0 / 4807</text>
   <use xlink:href="#element" x="1100" y="750" fill="#b1ffb1" />
   <text x="1150" y="745" class="strong" text-anchor="middle" font-size="135%">42%</text>
   <text x="1150" y="760" class="strong" text-anchor="middle" font-size="85%">1295 / 3112</text>
   <use xlink:href="#element" x="1200" y="750" fill="#ffffff" />
   <text x="1250" y="745" class="strong" text-anchor="middle" font-size="135%">0%</text>
   <text x="1250" y="760" class="strong" text-anchor="middle" font-size="85%">3 / 4790</text>
   <use xlink:href="#element" x="1300" y="750" fill="#ffffff" />
   <text x="1350" y="745" class="strong" text-anchor="middle" font-size="135%">0%</text>
   <text x="1350" y="760" class="strong" text-anchor="middle" font-size="85%">0 / 4973</text>
   <use xlink:href="#element" x="1400" y="750" fill="#86ff86" />
   <text x="1450" y="745" class="strong" text-anchor="middle" font-size="135%">64%</text>
   <text x="1450" y="760" class="strong" text-anchor="middle" font-size="85%">1576 / 2448</text>
   <use xlink:href="#element" x="1500" y="750" fill="#cfffcf" />
   <text x="1550" y="745" class="strong" text-anchor="middle" font-size="135%">26%</text>
   <text x="1550" y="760" class="strong" text-anchor="middle" font-size="85%">757 / 2946</text>
   <use xlink:href="#element" x="550" y="700" fill="#ffffff" />
   <text x="600" y="695" class="strong" text-anchor="middle" font-size="135%">0%</text>
   <text x="600" y="710" class="strong" text-anchor="middle" font-size="85%">0 / 4390</text>
   <use xlink:href="#element" x="650" y="700" fill="#ffffff" />
   <text x="700" y="695" class="strong" text-anchor="middle" font-size="135%">0%</text>
   <text x="700" y="710" class="strong" text-anchor="middle" font-size="85%">0 / 4930</text>
   <use xlink:href="#element" x="750" y="700" fill="#ceffce" />
   <text x="800" y="695" class="strong" text-anchor="middle" font-size="135%">26%</text>
   <text x="800" y="710" class="strong" text-anchor="middle" font-size="85%">836 / 3211</text>
   <use xlink:href="#element" x="850" y="700" fill="#d0ffd0" />
   <text x="900" y="695" class="strong" text-anchor="middle" font-size="135%">25%</text>
   <text x="900" y="710" class="strong" text-anchor="middle" font-size="85%">772 / 3085</text>
   <use xlink:href="#element" x="950" y="700" fill="#ffffff" />
   <text x="1000" y="695" class="strong" text-anchor="middle" font-size="135%">0%</text>
   <text x="1000" y="710" class="strong" text-anchor="middle" font-size="85%">0 / 4938</text>
   <use xlink:href="#element" x="1050" y="700" fill="#ffffff" />
   <text x="1100" y="695" class="strong" text-anchor="middle" font-size="135%">0%</text>
   <text x="1100" y="710" class="strong" text-anchor="middle" font-size="85%">0 / 4173</text>
   <use xlink:href="#element" x="1150" y="700" fill="#ffffff" />
   <text x="1200" y="695" class="strong" text-anchor="middle" font-size="135%">0%</text>
   <text x="1200" y="710" class="strong" text-anchor="middle" font-size="85%">3 / 4991</text>
   <use xlink:href="#element" x="1250" y="700" fill="#ffffff" />
   <text x="1300" y="695" class="strong" text-anchor="middle" font-size="135%">0%</text>
   <text x="1300" y="710" class="strong" text-anchor="middle" font-size="85%">0 / 4330</text>
   <use xlink:href="#element" x="1350" y="700" fill="#ffffff" />
   <text x="1400" y="695" class="strong" text-anchor="middle" font-size="135%">0%</text>
   <text x="1400" y="710" class="strong" text-anchor="middle" font-size="85%">0 / 4719</text>
   <use xlink:href="#element" x="1450" y="700" fill="#cfffcf" />
   <text x="1500" y="695" class="strong" text-anchor="middle" font-size="135%">25%</text>
   <text x="1500" y="710" class="strong" text-anchor="middle" font-size="85%">783 / 3082</text>
   <use xlink:href="#element" x="600" y="650" fill="#ffffff" />
   <text x="650" y="645" class="strong" text-anchor="middle" font-size="135%">0%</text>
   <text x="650" y="660" class="strong" text-anchor="middle" font-size="85%">0 / 5033</text>
   <use xlink:href="#element" x="700" y="650" fill="#ffffff" />
   <text x="750" y="645" class="strong" text-anchor="middle" font-size="135%">0%</text>
   <text x="750" y="660" class="strong" text-anchor="middle" font-size="85%">0 / 4235</text>
   <use xlink:href="#element" x="800" y="650" fill="#d0ffd0" />
   <text x="850" y="645" class="strong" text-anchor="middle" font-size="135%">25%</text>
   <text x="850" y="660" class="strong" text-anchor="middle" font-size="85%">780 / 3105</text>
   <use xlink:href="#element" x="900" y="650" fill="#ffffff" />
   <text x="950" y="645" class="strong" text-anchor="middle" font-size="135%">0%</text>
   <text x="950" y="660" class="strong" text-anchor="middle" font-size="85%">0 / 4857</text>
   <use xlink:href="#element" x="1000" y="650" fill="#ffffff" />
   <text x="1050" y="645" class="strong" text-anchor="middle" font-size="135%">0%</text>
   <text x="1050" y="660" class="strong" text-anchor="middle" font-size="85%">0 / 4304</text>
   <use xlink:href="#element" x="1100" y="650" fill="#ffffff" />
   <text x="1150" y="645" class="strong" text-anchor="middle" font-size="135%">0%</text>
   <text x="1150" y="660" class="strong" text-anchor="middle" font-size="85%">0 / 4760</text>
   <use xlink:href="#element" x="1200" y="650" fill="#ffffff" />
   <text x="1250" y="645" class="strong" text-anchor="middle" font-size="135%">0%</text>
   <text x="1250" y="660" class="strong" text-anchor="middle" font-size="85%">0 / 4531</text>
   <use xlink:href="#element" x="1300" y="650" fill="#ffffff" />
   <text x="1350" y="645" class="strong" text-anchor="middle" font-size="135%">0%</text>
   <text x="1350" y="660" class="strong" text-anchor="middle" font-size="85%">0 / 4076</text>
   <use xlink:href="#element" x="1400" y="650" fill="#ffffff" />
   <text x="1450" y="645" class="strong" text-anchor="middle" font-size="135%">0%</text>
   <text x="1450" y="660" class="strong" text-anchor="middle" font-size="85%">0 / 4560</text>
   <use xlink:href="#element" x="650" y="600" fill="#ffffff" />
   <text x="700" y="595" class="strong" text-anchor="middle" font-size="135%">0%</text>
   <text x="700" y="610" class="strong" text-anchor="middle" font-size="85%">0 / 4338</text>
   <use xlink:href="#element" x="750" y="600" fill="#ffffff" />
   <text x="800" y="595" class="strong" text-anchor="middle" font-size="135%">0%</text>
   <text x="800" y="610" class="strong" text-anchor="middle" font-size="85%">0 / 4073</text>
   <use xlink:href="#element" x="850" y="600" fill="#ffffff" />
   <text x="900" y="595" class="strong" text-anchor="middle" font-size="135%">0%</text>
   <text x="900" y="610" class="strong" text-anchor="middle" font-size="85%">0 / 4885</text>
   <use xlink:href="#element" x="950" y="600" fill="#ffffff" />
   <text x="1000" y="595" class="strong" text-anchor="middle" font-size="135%">0%</text>
   <text x="1000" y="610" class="strong" text-anchor="middle" font-size="85%">0 / 4223</text>
   <use xlink:href="#element" x="1050" y="600" fill="#ffffff" />
   <text x="1100" y="595" class="strong" text-anchor="middle" font-size="135%">0%</text>
   <text x="1100" y="610" class="strong" text-anchor="middle" font-size="85%">0 / 4891</text>
   <use xlink:href="#element" x="1150" y="600" fill="#ffffff" />
   <text x="1200" y="595" class="strong" text-anchor="middle" font-size="135%">0%</text>
   <text x="1200" y="610" class="strong" text-anchor="middle" font-size="85%">0 / 4297</text>
   <use xlink:href="#element" x="1250" y="600" fill="#ffffff" />
   <text x="1300" y="595" class="strong" text-anchor="middle" font-size="135%">0%</text>
   <text x="1300" y="610" class="strong" text-anchor="middle" font-size="85%">0 / 4277</text>
   <use xlink:href="#element" x="1350" y="600" fill="#ffffff" />
   <text x="1400" y="595" class="strong" text-anchor="middle" font-size="135%">0%</text>
   <text x="1400" y="610" class="strong" text-anchor="middle" font-size="85%">0 / 3917</text>
   <use xlink:href="#element" x="700" y="550" fill="#ffffff" />
   <text x="750" y="545" class="strong" text-anchor="middle" font-size="135%">0%</text>
   <text x="750" y="560" class="strong" text-anchor="middle" font-size="85%">0 / 4176</text>
   <use xlink:href="#element" x="800" y="550" fill="#ffffff" />
   <text x="850" y="545" class="strong" text-anchor="middle" font-size="135%">0%</text>
   <text x="850" y="560" class="strong" text-anchor="middle" font-size="85%">0 / 5073</text>
   <use xlink:href="#element" x="900" y="550" fill="#ffffff" />
   <text x="950" y="545" class="strong" text-anchor="middle" font-size="135%">0%</text>
   <text x="950" y="560" class="strong" text-anchor="middle" font-size="85%">0 / 4251</text>
   <use xlink:href="#element" x="1000" y="550" fill="#ffffff" />
   <text x="1050" y="545" class="strong" text-anchor="middle" font-size="135%">0%</text>
   <text x="1050" y="560" class="strong" text-anchor="middle" font-size="85%">0 / 4810</text>
   <use xlink:href="#element" x="1100" y="550" fill="#ffffff" />
   <text x="1150" y="545" class="strong" text-anchor="middle" font-size="135%">0%</text>
   <text x="1150" y="560" class="strong" text-anchor="middle" font-size="85%">0 / 4428</text>
   <use xlink:href="#element" x="1200" y="550" fill="#a1ffa1" />
   <text x="1250" y="545" class="strong" text-anchor="middle" font-size="135%">50%</text>
   <text x="1250" y="560" class="strong" text-anchor="middle" font-size="85%">1345 / 2698</text>
   <use xlink:href="#element" x="1300" y="550" fill="#ffffff" />
   <text x="1350" y="545" class="strong" text-anchor="middle" font-size="135%">0%</text>
   <text x="1350" y="560" class="strong" text-anchor="middle" font-size="85%">0 / 4118</text>
   <use xlink:href="#element" x="750" y="500" fill="#ffffff" />
   <text x="800" y="495" class="strong" text-anchor="middle" font-size="135%">0%</text>
   <text x="800" y="510" class="strong" text-anchor="middle" font-size="85%">0 / 5176</text>
   <use xlink:href="#element" x="850" y="500" fill="#ffffff" />
   <text x="900" y="495" class="strong" text-anchor="middle" font-size="135%">0%</text>
   <text x="900" y="510" class="strong" text-anchor="middle" font-size="85%">0 / 4439</text>
   <use xlink:href="#element" x="950" y="500" fill="#ffffff" />
   <text x="1000" y="495" class="strong" text-anchor="middle" font-size="135%">0%</text>
   <text x="1000" y="510" class="strong" text-anchor="middle" font-size="85%">0 / 4838</text>
   <use xlink:href="#element" x="1050" y="500" fill="#ffffff" />
   <text x="1100" y="495" class="strong" text-anchor="middle" font-size="135%">0%</text>
   <text x="1100" y="510" class="strong" text-anchor="middle" font-size="85%">0 / 4347</text>
   <use xlink:href="#element" x="1150" y="500" fill="#d4ffd4" />
   <text x="1200" y="495" class="strong" text-anchor="middle" font-size="135%">23%</text>
   <text x="1200" y="510" class="strong" text-anchor="middle" font-size="85%">779 / 3395</text>
   <use xlink:href="#element" x="1250" y="500" fill="#c9ffc9" />
   <text x="1300" y="495" class="strong" text-anchor="middle" font-size="135%">29%</text>
   <text x="1300" y="510" class="strong" text-anchor="middle" font-size="85%">874 / 3010</text>
   <use xlink:href="#element" x="800" y="450" fill="#ffffff" />
   <text x="850" y="445" class="strong" text-anchor="middle" font-size="135%">0%</text>
   <text x="850" y="460" class="strong" text-anchor="middle" font-size="85%">0 / 4542</text>
   <use xlink:href="#element" x="900" y="450" fill="#ffffff" />
   <text x="950" y="445" class="strong" text-anchor="middle" font-size="135%">0%</text>
   <text x="950" y="460" class="strong" text-anchor="middle" font-size="85%">0 / 5026</text>
   <use xlink:href="#element" x="1000" y="450" fill="#ffffff" />
   <text x="1050" y="445" class="strong" text-anchor="middle" font-size="135%">0%</text>
   <text x="1050" y="460" class="strong" text-anchor="middle" font-size="85%">0 / 4375</text>
   <use xlink:href="#element" x="1100" y="450" fill="#d0ffd0" />
   <text x="1150" y="445" class="strong" text-anchor="middle" font-size="135%">25%</text>
   <text x="1150" y="460" class="strong" text-anchor="middle" font-size="85%">824 / 3269</text>
   <use xlink:href="#element" x="1200" y="450" fill="#8dff8d" />
   <text x="1250" y="445" class="strong" text-anchor="middle" font-size="135%">61%</text>
   <text x="1250" y="460" class="strong" text-anchor="middle" font-size="85%">1514 / 2501</text>
   <use xlink:href="#element" x="850" y="400" fill="#ffffff" />
   <text x="900" y="395" class="strong" text-anchor="middle" font-size="135%">0%</text>
   <text x="900" y="410" class="strong" text-anchor="middle" font-size="85%">0 / 5129</text>
   <use xlink:href="#element" x="950" y="400" fill="#7bff7b" />
   <text x="1000" y="395" class="strong" text-anchor="middle" font-size="135%">70%</text>
   <text x="1000" y="410" class="strong" text-anchor="middle" font-size="85%">1882 / 2681</text>
   <use xlink:href="#element" x="1050" y="400" fill="#d0ffd0" />
   <text x="1100" y="395" class="strong" text-anchor="middle" font-size="135%">25%</text>
   <text x="1100" y="410" class="strong" text-anchor="middle" font-size="85%">825 / 3296</text>
   <use xlink:href="#element" x="1150" y="400" fill="#81ff81" />
   <text x="1200" y="395" class="strong" text-anchor="middle" font-size="135%">67%</text>
   <text x="1200" y="410" class="strong" text-anchor="middle" font-size="85%">1583 / 2351</text>
   <use xlink:href="#element" x="900" y="350" fill="#80ff80" />
   <text x="950" y="345" class="strong" text-anchor="middle" font-size="135%">68%</text>
   <text x="950" y="360" class="strong" text-anchor="middle" font-size="85%">1884 / 2782</text>
   <use xlink:href="#element" x="1000" y="350" fill="#ffffff" />
   <text x="1050" y="345" class="strong" text-anchor="middle" font-size="135%">0%</text>
   <text x="1050" y="360" class="strong" text-anchor="middle" font-size="85%">0 / 4309</text>
   <use xlink:href="#element" x="1100" y="350" fill="#85ff85" />
   <text x="1150" y="345" class="strong" text-anchor="middle" font-size="135%">65%</text>
   <text x="1150" y="360" class="strong" text-anchor="middle" font-size="85%">1561 / 2401</text>
   <use xlink:href="#element" x="950" y="300" fill="#ffffff" />
   <text x="1000" y="295" class="strong" text-anchor="middle" font-size="135%">0%</text>
   <text x="1000" y="310" class="strong" text-anchor="middle" font-size="85%">0 / 4412</text>
   <use xlink:href="#element" x="1050" y="300" fill="#ffffff" />
   <text x="1100" y="295" class="strong" text-anchor="middle" font-size="135%">0%</text>
   <text x="1100" y="310" class="strong" text-anchor="middle" font-size="85%">0 / 4150</text>
   <use xlink:href="#element" x="1000" y="250" fill="#ffffff" />
   <text x="1050" y="245" class="strong" text-anchor="middle" font-size="135%">0%</text>
   <text x="1050" y="260" class="strong" text-anchor="middle" font-size="85%">0 / 4253</text>
   <text x="0" y="0" font-style="italic" text-anchor="end" transform="translate(213,1022), rotate(45)">JCM 30893</text>
   <text x="0" y="0" font-style="italic" text-anchor="end" transform="translate(263,972), rotate(45)">YL44</text>
   <text x="0" y="0" font-style="italic" text-anchor="end" transform="translate(313,922), rotate(45)">BR3</text>
   <text x="0" y="0" font-style="italic" text-anchor="end" transform="translate(363,872), rotate(45)">LMC520</text>
   <text x="0" y="0" font-style="italic" text-anchor="end" transform="translate(413,822), rotate(45)">DRBB27</text>
   <text x="0" y="0" font-style="italic" text-anchor="end" transform="translate(463,772), rotate(45)">BXY01</text>
   <text x="0" y="0" font-style="italic" text-anchor="end" transform="translate(513,722), rotate(45)">MB2-1</text>
   <text x="0" y="0" font-style="italic" text-anchor="end" transform="translate(563,672), rotate(45)">D75</text>
   <text x="0" y="0" font-style="italic" text-anchor="end" transform="translate(613,622), rotate(45)">ASCC 290</text>
   <text x="0" y="0" font-style="italic" text-anchor="end" transform="translate(663,572), rotate(45)">BG7</text>
   <text x="0" y="0" font-style="italic" text-anchor="end" transform="translate(713,522), rotate(45)">35624</text>
   <text x="0" y="0" font-style="italic" text-anchor="end" transform="translate(763,472), rotate(45)">BFE5264</text>
   <text x="0" y="0" font-style="italic" text-anchor="end" transform="translate(813,422), rotate(45)">R0052</text>
   <text x="0" y="0" font-style="italic" text-anchor="end" transform="translate(863,372), rotate(45)">GG</text>
   <text x="0" y="0" font-style="italic" text-anchor="end" transform="translate(913,322), rotate(45)">EB-AMDK-3</text>
   <text x="0" y="0" font-style="italic" text-anchor="end" transform="translate(963,272), rotate(45)">CECT 7210</text>
   <text x="0" y="0" font-style="italic" text-anchor="end" transform="translate(1013,222), rotate(45)">JCM 7017</text>
   <text x="0" y="0" font-style="italic" text-anchor="start" transform="translate(1083,223), rotate(-45)">JCM 30893</text>
   <text x="0" y="0" font-style="italic" text-anchor="start" transform="translate(1133,273), rotate(-45)">YL44</text>
   <text x="0" y="0" font-style="italic" text-anchor="start" transform="translate(1183,323), rotate(-45)">BR3</text>
   <text x="0" y="0" font-style="italic" text-anchor="start" transform="translate(1233,373), rotate(-45)">LMC520</text>
   <text x="0" y="0" font-style="italic" text-anchor="start" transform="translate(1283,423), rotate(-45)">DRBB27</text>
   <text x="0" y="0" font-style="italic" text-anchor="start" transform="translate(1333,473), rotate(-45)">BXY01</text>
   <text x="0" y="0" font-style="italic" text-anchor="start" transform="translate(1383,523), rotate(-45)">MB2-1</text>
   <text x="0" y="0" font-style="italic" text-anchor="start" transform="translate(1433,573), rotate(-45)">D75</text>
   <text x="0" y="0" font-style="italic" text-anchor="start" transform="translate(1483,623), rotate(-45)">ASCC 290</text>
   <text x="0" y="0" font-style="italic" text-anchor="start" transform="translate(1533,673), rotate(-45)">BG7</text>
   <text x="0" y="0" font-style="italic" text-anchor="start" transform="translate(1583,723), rotate(-45)">35624</text>
   <text x="0" y="0" font-style="italic" text-anchor="start" transform="translate(1633,773), rotate(-45)">BFE5264</text>
   <text x="0" y="0" font-style="italic" text-anchor="start" transform="translate(1683,823), rotate(-45)">R0052</text>
   <text x="0" y="0" font-style="italic" text-anchor="start" transform="translate(1733,873), rotate(-45)">GG</text>
   <text x="0" y="0" font-style="italic" text-anchor="start" transform="translate(1783,923), rotate(-45)">EB-AMDK-3</text>
   <text x="0" y="0" font-style="italic" text-anchor="start" transform="translate(1833,973), rotate(-45)">CECT 7210</text>
   <text x="0" y="0" font-style="italic" text-anchor="start" transform="translate(1883,1023), rotate(-45)">JCM 7017</text>
  <defs>
    <linearGradient id="red_linear" x1="0%" y1="0%" x2="100%" y2="0%">
       <stop offset="0%"   stop-color="#ffffff"/>
       <stop offset="100%" stop-color="#ff6666"/>
    </linearGradient>
    <linearGradient id="green_linear" x1="0%" y1="0%" x2="100%" y2="0%">
       <stop offset="0%"   stop-color="#ffffff"/>
       <stop offset="100%" stop-color="#66ff66"/>
    </linearGradient>
  </defs>
  <rect x="750" y="1150" width="250" height="30" stroke="black" stroke-width="2" fill="url(#red_linear)" />
  <rect x="1100" y="1150" width="250" height="30" stroke="black" stroke-width="2" fill="url(#green_linear)" />
 <text x="875" y="1140" class="strong" text-anchor="middle">Homology within proteomes</text>
 <text x="750" y="1195" class="strong" text-anchor="middle" font-size="100%">0.13%</text>
 <text x="1000" y="1195" class="strong" text-anchor="middle" font-size="100%">2.66%</text>
 <text x="1225" y="1140" class="strong" text-anchor="middle">Homology between proteomes</text>
 <text x="1100" y="1195" class="strong" text-anchor="middle" font-size="100%">0.00%</text>
 <text x="1350" y="1195" class="strong" text-anchor="middle" font-size="100%">81.56%</text>
</svg>
