<svg version="1.1"
   baseProfile="full"
   width="1000" height="800"
   xmlns="http://www.w3.org/2000/svg"
   xmlns:xlink="http://www.w3.org/1999/xlink">
   <defs>
     <rect id = "element"
           x="0" y="0" width="70.71067811" height="70.71067811" rx="10"
           stroke="black" stroke-width="2"
           transform = "rotate(-45 0 0)"/>
   </defs>
   <use xlink:href="#element" x="200" y="500" fill="#fff1f1" />
   <text x="250" y="495" class="strong" text-anchor="middle">0.60%</text>
   <text x="250" y="510" class="strong" text-anchor="middle" font-size="85%">30 / 4970</text>
   <use xlink:href="#element" x="300" y="500" fill="#ff8282" />
   <text x="350" y="495" class="strong" text-anchor="middle">3.64%</text>
   <text x="350" y="510" class="strong" text-anchor="middle" font-size="85%">133 / 3655</text>
   <use xlink:href="#element" x="400" y="500" fill="#ff6666" />
   <text x="450" y="495" class="strong" text-anchor="middle">4.39%</text>
   <text x="450" y="510" class="strong" text-anchor="middle" font-size="85%">217 / 4945</text>
   <use xlink:href="#element" x="500" y="500" fill="#ffffff" />
   <text x="550" y="495" class="strong" text-anchor="middle">0.22%</text>
   <text x="550" y="510" class="strong" text-anchor="middle" font-size="85%">16 / 7173</text>
   <use xlink:href="#element" x="600" y="500" fill="#fffefe" />
   <text x="650" y="495" class="strong" text-anchor="middle">0.24%</text>
   <text x="650" y="510" class="strong" text-anchor="middle" font-size="85%">8 / 3324</text>
   <use xlink:href="#element" x="700" y="500" fill="#fff0f0" />
   <text x="750" y="495" class="strong" text-anchor="middle">0.63%</text>
   <text x="750" y="510" class="strong" text-anchor="middle" font-size="85%">10 / 1578</text>
   <use xlink:href="#element" x="250" y="450" fill="#ffffff" />
   <text x="300" y="445" class="strong" text-anchor="middle">0.00%</text>
   <text x="300" y="460" class="strong" text-anchor="middle" font-size="85%">0 / 8625</text>
   <use xlink:href="#element" x="350" y="450" fill="#ffffff" />
   <text x="400" y="445" class="strong" text-anchor="middle">0.00%</text>
   <text x="400" y="460" class="strong" text-anchor="middle" font-size="85%">0 / 8600</text>
   <use xlink:href="#element" x="450" y="450" fill="#66ff66" />
   <text x="500" y="445" class="strong" text-anchor="middle">0.02%</text>
   <text x="500" y="460" class="strong" text-anchor="middle" font-size="85%">2 / 12116</text>
   <use xlink:href="#element" x="550" y="450" fill="#ffffff" />
   <text x="600" y="445" class="strong" text-anchor="middle">0.00%</text>
   <text x="600" y="460" class="strong" text-anchor="middle" font-size="85%">0 / 10497</text>
   <use xlink:href="#element" x="650" y="450" fill="#ffffff" />
   <text x="700" y="445" class="strong" text-anchor="middle">0.00%</text>
   <text x="700" y="460" class="strong" text-anchor="middle" font-size="85%">0 / 4902</text>
   <use xlink:href="#element" x="300" y="400" fill="#ffffff" />
   <text x="350" y="395" class="strong" text-anchor="middle">0.00%</text>
   <text x="350" y="410" class="strong" text-anchor="middle" font-size="85%">0 / 9915</text>
   <use xlink:href="#element" x="400" y="400" fill="#a9ffa9" />
   <text x="450" y="395" class="strong" text-anchor="middle">0.01%</text>
   <text x="450" y="410" class="strong" text-anchor="middle" font-size="85%">1 / 10827</text>
   <use xlink:href="#element" x="500" y="400" fill="#ffffff" />
   <text x="550" y="395" class="strong" text-anchor="middle">0.00%</text>
   <text x="550" y="410" class="strong" text-anchor="middle" font-size="85%">0 / 8269</text>
   <use xlink:href="#element" x="600" y="400" fill="#ffffff" />
   <text x="650" y="395" class="strong" text-anchor="middle">0.00%</text>
   <text x="650" y="410" class="strong" text-anchor="middle" font-size="85%">0 / 8751</text>
   <use xlink:href="#element" x="350" y="350" fill="#ffffff" />
   <text x="400" y="345" class="strong" text-anchor="middle">0.00%</text>
   <text x="400" y="360" class="strong" text-anchor="middle" font-size="85%">0 / 12143</text>
   <use xlink:href="#element" x="450" y="350" fill="#ffffff" />
   <text x="500" y="345" class="strong" text-anchor="middle">0.00%</text>
   <text x="500" y="360" class="strong" text-anchor="middle" font-size="85%">0 / 6979</text>
   <use xlink:href="#element" x="550" y="350" fill="#ffffff" />
   <text x="600" y="345" class="strong" text-anchor="middle">0.00%</text>
   <text x="600" y="360" class="strong" text-anchor="middle" font-size="85%">0 / 6523</text>
   <use xlink:href="#element" x="400" y="300" fill="#ffffff" />
   <text x="450" y="295" class="strong" text-anchor="middle">0.00%</text>
   <text x="450" y="310" class="strong" text-anchor="middle" font-size="85%">0 / 8294</text>
   <use xlink:href="#element" x="500" y="300" fill="#ffffff" />
   <text x="550" y="295" class="strong" text-anchor="middle">0.00%</text>
   <text x="550" y="310" class="strong" text-anchor="middle" font-size="85%">0 / 5233</text>
   <use xlink:href="#element" x="450" y="250" fill="#ffffff" />
   <text x="500" y="245" class="strong" text-anchor="middle">0.00%</text>
   <text x="500" y="260" class="strong" text-anchor="middle" font-size="85%">0 / 6548</text>
   <text x="0" y="0" font-style="italic" text-anchor="end" transform="translate(213,472), rotate(45)">Vaf-108</text>
   <text x="0" y="0" font-style="italic" text-anchor="end" transform="translate(263,422), rotate(45)">J448</text>
   <text x="0" y="0" font-style="italic" text-anchor="end" transform="translate(313,372), rotate(45)">EDL933</text>
   <text x="0" y="0" font-style="italic" text-anchor="end" transform="translate(363,322), rotate(45)">PA38182</text>
   <text x="0" y="0" font-style="italic" text-anchor="end" transform="translate(413,272), rotate(45)">KN400</text>
   <text x="0" y="0" font-style="italic" text-anchor="end" transform="translate(463,222), rotate(45)">Gambia94/24</text>
   <text x="0" y="0" font-style="italic" text-anchor="start" transform="translate(533,223), rotate(-45)">Vaf-108</text>
   <text x="0" y="0" font-style="italic" text-anchor="start" transform="translate(583,273), rotate(-45)">J448</text>
   <text x="0" y="0" font-style="italic" text-anchor="start" transform="translate(633,323), rotate(-45)">EDL933</text>
   <text x="0" y="0" font-style="italic" text-anchor="start" transform="translate(683,373), rotate(-45)">PA38182</text>
   <text x="0" y="0" font-style="italic" text-anchor="start" transform="translate(733,423), rotate(-45)">KN400</text>
   <text x="0" y="0" font-style="italic" text-anchor="start" transform="translate(783,473), rotate(-45)">Gambia94/24</text>
  <defs>
    <linearGradient id="red_linear" x1="0%" y1="0%" x2="100%" y2="0%">
       <stop offset="0%"   stop-color="#ffffff"/>
       <stop offset="100%" stop-color="#ff6666"/>
    </linearGradient>
    <linearGradient id="green_linear" x1="0%" y1="0%" x2="100%" y2="0%">
       <stop offset="0%"   stop-color="#ffffff"/>
       <stop offset="100%" stop-color="#66ff66"/>
    </linearGradient>
  </defs>
  <rect x="200" y="600" width="250" height="30" stroke="black" stroke-width="2" fill="url(#red_linear)" />
  <rect x="550" y="600" width="250" height="30" stroke="black" stroke-width="2" fill="url(#green_linear)" />
 <text x="325" y="590" class="strong" text-anchor="middle">Homology within proteomes</text>
 <text x="200" y="645" class="strong" text-anchor="middle" font-size="100%">0.22%</text>
 <text x="450" y="645" class="strong" text-anchor="middle" font-size="100%">4.39%</text>
 <text x="675" y="590" class="strong" text-anchor="middle">Homology between proteomes</text>
 <text x="550" y="645" class="strong" text-anchor="middle" font-size="100%">0.00%</text>
 <text x="800" y="645" class="strong" text-anchor="middle" font-size="100%">0.02%</text>
</svg>
